<?xml version="1.0" encoding="utf-8"?>
<!-- Generator: Adobe Illustrator 24.0.2, SVG Export Plug-In . SVG Version: 6.00 Build 0)  -->
<svg version="1.1" id="Layer_1" xmlns="http://www.w3.org/2000/svg" xmlns:xlink="http://www.w3.org/1999/xlink" x="0px" y="0px"
	 viewBox="0 0 512 512" style="enable-background:new 0 0 512 512;" xml:space="preserve">
<style type="text/css">
	.st0{fill:#18B8C4;}
</style>
<g>
	<g>
		<path class="st0" d="M203.6,491.6L203.6,491.6c-18.8-18.8-18.8-49.3,0-68l121.9-121.9c25.4-25.4,25.4-66.5,0-91.8l-122-122
			c-18.8-18.8-18.8-49.2,0-68l0,0c18.8-18.8,49.2-18.8,68,0l206.6,206.6c16.2,16.2,16.2,42.5,0,58.7L271.6,491.6
			C252.9,510.4,222.4,510.4,203.6,491.6z"/>
	</g>
	<g>
		<path class="st0" d="M35.1,395.9L35.1,395.9c-18.8-18.8-18.8-49.2,0-68l39.2-39.2c18.2-18.2,18.2-47.7,0-65.9l-39.2-39.2
			c-18.8-18.8-18.8-49.2,0-68h0c18.8-18.8,49.2-18.8,68,0L214,226.3c16.2,16.2,16.2,42.5,0,58.7L103.2,395.9
			C84.4,414.7,53.9,414.7,35.1,395.9z"/>
	</g>
</g>
</svg>
