<?xml version="1.0" encoding="iso-8859-1"?>
<!-- Generator: Adobe Illustrator 19.0.0, SVG Export Plug-In . SVG Version: 6.00 Build 0)  -->
<svg version="1.1" id="Capa_1" xmlns="http://www.w3.org/2000/svg" xmlns:xlink="http://www.w3.org/1999/xlink" x="0px" y="0px"
	 viewBox="0 0 507.434 507.434" style="enable-background:new 0 0 507.434 507.434;" xml:space="preserve">
<polygon style="fill:#415A6B;" points="273.946,402.133 41.413,439.467 41.413,478.933 273.946,442.667 "/>
<path style="fill:#F3705A;" d="M217.413,412.8c0,0-11.733,7.467-17.067,5.333c0,0-8.533,5.333-7.467-1.067
	c0,0,2.133-1.067,1.067-3.2l13.867-2.133L217.413,412.8z"/>
<g>
	<path style="fill:#FFD15C;" d="M192.88,417.067c0,0,2.133-1.067,1.067-3.2c0,0-5.333-1.067-7.467,4.267
		C186.48,418.133,190.746,416,192.88,417.067z"/>
	<path style="fill:#FFD15C;" d="M243.013,434.133c0,0,2.133-3.2,4.267-3.2c0,0,4.267,5.333-1.067,10.667
		C246.213,440.533,246.213,435.2,243.013,434.133z"/>
	<path style="fill:#FFD15C;" d="M232.346,429.867c0,0,2.133-3.2,4.267-3.2c0,0,4.267,5.333-1.067,10.667
		C235.546,437.333,235.546,430.933,232.346,429.867z"/>
</g>
<path style="fill:#F3705A;" d="M214.213,412.8c0,0,2.133,2.133,5.333,2.133c0,0,2.133,5.333,6.4,6.4c0,0,6.4,12.8,8.533,9.6
	c0-2.133,2.133-4.267,3.2-4.267c0,0-6.4-10.667-9.6-13.867c0,0,9.6,10.667,11.733,14.933c0,0,0,5.333,4.267,6.4
	c0,0,2.133-3.2,5.333-2.133c0,0-13.867-24.533-33.067-29.867l-11.733-4.267v9.6c1.067,0,5.333,3.2,2.133,4.267l-2.133,2.133
	L214.213,412.8z"/>
<g>
	<path style="fill:#FFD15C;" d="M199.28,440.533c0,0,2.133-3.2,4.267-3.2c0,0,4.267,5.333-2.133,10.667
		C201.413,448,202.48,442.667,199.28,440.533z"/>
	<path style="fill:#FFD15C;" d="M187.546,436.267c0,0,2.133-3.2,4.267-3.2c0,0,4.267,5.333-2.133,10.667
		C190.746,443.733,191.813,438.4,187.546,436.267z"/>
</g>
<path style="fill:#F3705A;" d="M170.48,419.2c0,0,4.267,1.067,4.267,2.133c0,0,2.133,5.333,6.4,6.4c0,0,5.333,12.8,8.533,9.6
	c0-2.133,2.133-4.267,3.2-3.2c-1.067-3.2-3.2-7.467-6.4-10.667c0,0,2.133,2.133,4.267,5.333c2.133,3.2,3.2,6.4,5.333,9.6
	c0,1.067,1.067,3.2,4.267,3.2c0,0,2.133-3.2,5.333-2.133c0,0-12.8-25.6-32-30.933l-10.667-5.333v9.6
	c1.067,0,5.333,4.267,2.133,4.267l-3.2,2.133L170.48,419.2z"/>
<g>
	<path style="fill:#CED6E0;" d="M183.28,413.867c-1.067-2.133,0-2.133,0-3.2c0,0-4.267-6.4-14.933,8.533c2.133,0,6.4,3.2,6.4,4.267
		C177.946,418.133,180.08,416,183.28,413.867z"/>
</g>
<path style="fill:#344A5E;" d="M269.68,202.667c-1.067,4.267-5.333,6.4-6.4,6.4c-13.867,3.2-17.067-12.8-14.933-13.867
	C248.346,195.2,268.613,200.533,269.68,202.667z"/>
<path style="fill:#415A6B;" d="M247.28,195.2c0,0,3.2-1.067,8.533-2.133c8.533-2.133,17.067-1.067,24.533,3.2l0,0
	c0,0-3.2-29.867-38.4-26.667C232.346,179.2,235.546,186.667,247.28,195.2z"/>
<path style="fill:#E8EAE9;" d="M175.813,275.2C160.88,261.333,93.68,411.733,80.88,452.267C74.48,464,31.813,555.733,109.68,473.6
	l58.667-54.4c0,0,4.267-3.2,10.667-7.467c8.533-5.333,18.133-5.333,27.733-2.133l0,0c0,0,3.2-5.333,8.533-7.467
	c-7.467-8.533-28.8-9.6,51.2-133.333l-26.667-52.267l7.467-21.333c0,0-12.8-14.933-4.267-24.533c0,0-21.333-25.6-52.267,1.067
	c-13.867,10.667-22.4,28.8-22.4,46.933c0,13.867-1.067,4.267,2.133,24.533L175.813,275.2z"/>
<path style="fill:#CED6E0;" d="M176.88,391.467c-5.333,11.733-8.533,27.733-8.533,27.733c8.533-5.333,30.933-16,38.4-9.6
	c0,0,3.2-5.333,8.533-7.467c-8.533-4.267,43.733-61.867,51.2-113.067C266.48,289.067,225.946,277.333,176.88,391.467z"/>
<g>
	<path style="fill:#66C6B9;" d="M263.28,208c0,5.333,4.267,60.8,4.267,60.8c0,4.267,1.067,8.533,0,12.8
		c-1.067,14.933-5.333,28.8-12.8,40.533c-7.467,12.8-17.067,28.8-22.4,26.667c-12.8-6.4-5.333-43.733-3.2-51.2
		c-3.2,5.333-16,6.4-20.267,1.067c-4.267-5.333-4.267-11.733-4.267-18.133c-1.067,2.133-2.133,9.6-4.267,10.667
		c-10.667,5.333-16-21.333-10.667-33.067l-18.133-5.333l-1.067-9.6c-3.2-20.267-2.133-10.667-2.133-23.467
		c1.067-18.133,8.533-36.267,22.4-48c32-26.667,53.333-2.133,53.333-2.133c-7.467,9.6,4.267,25.6,4.267,25.6
		S247.28,209.067,263.28,208z"/>
	<path style="fill:#66C6B9;" d="M100.08,385.067c0,0-37.333,53.333-13.867,36.267s93.867-99.2,104.533-121.6
		c6.4-13.867,6.4-30.933,0-45.867c22.4,46.933-27.733-20.267-40.533-4.267l-1.067,1.067c-9.6,11.733-18.133,25.6-23.467,40.533
		c-11.733,26.667-36.267,86.4-22.4,64C103.28,355.2,89.413,395.733,100.08,385.067z"/>
</g>
<path style="fill:#4ABAA5;" d="M191.813,253.867c-7.467-16-29.867-18.133-40.533-4.267l-1.067,1.067
	c-9.6,11.733-18.133,25.6-23.467,40.533c-11.733,26.667-36.267,86.4-22.4,64c0,0,0,0,0,1.067c1.067-1.067,1.067-2.133,2.133-3.2
	c0,3.2-3.2,7.467,0,9.6c3.2,2.133,6.4-3.2,8.533-7.467c0,1.067,0,2.133,1.067,3.2c1.067,1.067,3.2,0,4.267-1.067
	s2.133-3.2,3.2-4.267c1.067-1.067,1.067-3.2,2.133-4.267c-1.067,1.067,0,3.2,1.067,3.2c1.067,1.067,3.2,0,4.267-1.067
	c1.067-1.067,2.133-3.2,2.133-4.267c0-1.067,1.067-2.133,1.067-3.2c0,1.067,0,2.133,1.067,2.133c1.067,1.067,3.2,0,4.267-1.067
	c4.267-3.2,7.467-7.467,9.6-11.733c-1.067,2.133-1.067,3.2-1.067,5.333s1.067,3.2,3.2,4.267c2.133,0,4.267-2.133,5.333-4.267
	c2.133-3.2,4.267-6.4,5.333-9.6c0,2.133-2.133,5.333-1.067,6.4c2.133,2.133,5.333-3.2,7.467-4.267l0,0
	c10.667-13.867,19.2-25.6,22.4-32C198.213,285.867,198.213,267.733,191.813,253.867z"/>
<ellipse transform="matrix(-0.5074 -0.8617 0.8617 -0.5074 171.951 486.2139)" style="fill:#E8EAE9;" cx="224.948" cy="193.959" rx="8.533" ry="10.667"/>
<ellipse transform="matrix(-0.5074 -0.8617 0.8617 -0.5074 167.8555 486.6385)" style="fill:#CED6E0;" cx="223.021" cy="195.342" rx="5.333" ry="6.4"/>
<circle style="fill:#344A5E;" cx="221.68" cy="195.2" r="4.267"/>
<circle style="fill:#FFFFFF;" cx="220.613" cy="193.067" r="1.067"/>
<polygon style="fill:#415A6B;" points="41.413,439.467 41.413,478.933 168.346,458.667 168.346,419.2 "/>
<g>
	<path style="fill:#F3705A;" d="M371.013,88.533c0,0,50.133-23.467,50.133-61.867C421.146,11.733,409.413,0,394.48,0
		c-10.667,0-19.2,6.4-23.467,14.933C366.746,6.4,357.146,0,347.546,0c-14.933,0-26.667,11.733-26.667,26.667
		C319.813,65.067,371.013,88.533,371.013,88.533z"/>
	<path style="fill:#F3705A;" d="M457.413,73.6c0,0,13.867-19.2,6.4-33.067c-3.2-5.333-9.6-7.467-14.933-4.267
		c-4.267,2.133-6.4,6.4-6.4,10.667c-3.2-2.133-8.533-3.2-11.733-1.067c-5.333,3.2-7.467,9.6-4.267,14.933
		C433.946,75.733,457.413,73.6,457.413,73.6z"/>
	<path style="fill:#F3705A;" d="M333.68,195.2c0,0,13.867-19.2,6.4-33.067c-3.2-5.333-9.6-7.467-14.933-4.267
		c-4.267,2.133-6.4,6.4-6.4,10.667c-3.2-2.133-8.533-3.2-11.733-1.067c-5.333,3.2-7.467,9.6-4.267,14.933
		C310.213,197.333,333.68,195.2,333.68,195.2z"/>
	<path style="fill:#F3705A;" d="M391.28,167.467c0,0,39.467,1.067,52.267-23.467c4.267-9.6,1.067-21.333-8.533-25.6
		c-6.4-3.2-14.933-2.133-20.267,2.133c0-7.467-4.267-13.867-10.667-17.067c-9.6-4.267-21.333-1.067-25.6,8.533
		C365.68,136.533,391.28,167.467,391.28,167.467z"/>
</g>
<g>
</g>
<g>
</g>
<g>
</g>
<g>
</g>
<g>
</g>
<g>
</g>
<g>
</g>
<g>
</g>
<g>
</g>
<g>
</g>
<g>
</g>
<g>
</g>
<g>
</g>
<g>
</g>
<g>
</g>
</svg>
