<?xml version="1.0" encoding="utf-8"?>
<!-- Generator: Adobe Illustrator 18.0.0, SVG Export Plug-In . SVG Version: 6.00 Build 0)  -->
<!DOCTYPE svg PUBLIC "-//W3C//DTD SVG 1.1//EN" "http://www.w3.org/Graphics/SVG/1.1/DTD/svg11.dtd">
<svg version="1.1" id="Layer_1" xmlns="http://www.w3.org/2000/svg" xmlns:xlink="http://www.w3.org/1999/xlink" x="0px" y="0px"
	 viewBox="0 0 64 64" enable-background="new 0 0 64 64" xml:space="preserve">
<g>
	<g id="XMLID_1_">
		<g>
			<g>
				<path fill="#E89D3A" d="M63,22v30L1,62v-8c3.5-0.2,6.2-3.1,6.2-6.5S4.5,41.3,1,41v-9l41.5-6.7c0.6,2.7,3.1,4.7,6,4.7
					c3.4,0,6.2-2.7,6.2-6c0-0.3,0-0.6-0.1-0.9L55,23L63,22z M52.7,44.5c0-1.9-1.6-3.5-3.6-3.5s-3.6,1.6-3.6,3.5S47,48,49,48
					S52.7,46.4,52.7,44.5z M38.2,44.5c0-3-2.5-5.5-5.7-5.5s-5.7,2.5-5.7,5.5s2.5,5.5,5.7,5.5S38.2,47.5,38.2,44.5z M18.6,40
					c0-1.7-1.4-3-3.1-3c-1.7,0-3.1,1.3-3.1,3s1.4,3,3.1,3C17.2,43,18.6,41.7,18.6,40z"/>
			</g>
			<g>
				<path fill="#F4CD76" d="M63,22l-8,1l-0.4,0.1c-0.5-2.9-3-5.1-6.1-5.1c-3.4,0-6.2,2.7-6.2,6c0,0.5,0,0.9,0.2,1.3L1,32L31,3
					C43.8,4.9,56.4,11.7,63,22z"/>
			</g>
			<g>
				<path fill="#CE7515" d="M42.5,25.3c-0.1-0.4-0.2-0.9-0.2-1.3c0-3.3,2.8-6,6.2-6c3.1,0,5.7,2.2,6.1,5.1c0.1,0.3,0.1,0.6,0.1,0.9
					c0,3.3-2.8,6-6.2,6C45.6,30,43.1,28,42.5,25.3z"/>
			</g>
			<g>
				<path fill="#CE7515" d="M49,41c2,0,3.6,1.6,3.6,3.5S51,48,49,48s-3.6-1.6-3.6-3.5S47,41,49,41z"/>
			</g>
			<g>
				<path fill="#CE7515" d="M32.5,39c3.1,0,5.7,2.5,5.7,5.5S35.7,50,32.5,50s-5.7-2.5-5.7-5.5S29.4,39,32.5,39z"/>
			</g>
			<g>
				<path fill="#CE7515" d="M15.5,37c1.7,0,3.1,1.3,3.1,3s-1.4,3-3.1,3c-1.7,0-3.1-1.3-3.1-3S13.8,37,15.5,37z"/>
			</g>
		</g>
		<g>
			<g>
				<path fill="#2C2C3D" d="M1,63c-0.2,0-0.5-0.1-0.6-0.2C0.1,62.6,0,62.3,0,62v-8c0-0.5,0.4-1,0.9-1c3-0.2,5.3-2.6,5.3-5.5
					S3.9,42.2,0.9,42C0.4,42,0,41.6,0,41v-9c0-0.3,0.1-0.5,0.3-0.7l30-29C30.5,2.1,30.8,2,31.1,2c13.8,2,26.3,9.5,32.7,19.4
					c0.1,0.2,0.2,0.4,0.2,0.5v30c0,0.5-0.4,0.9-0.8,1l-62,10C1.1,63,1.1,63,1,63z M2,54.8v6l60-9.7V22.3C55.9,13,44.2,6.1,31.3,4.1
					L2,32.4v7.7c3.5,0.7,6.2,3.8,6.2,7.3S5.5,54.2,2,54.8z"/>
			</g>
			<g>
				
					<rect x="58" y="18.5" transform="matrix(0.124 0.9923 -0.9923 0.124 74.0082 -38.8352)" fill="#2C2C3D" width="2" height="8.1"/>
			</g>
			<g>
				<polygon fill="#2C2C3D" points="1.2,33 0.8,31 43.2,24.2 43.5,26.2 42.6,26.3 				"/>
			</g>
			<g>
				<path fill="#2C2C3D" d="M32.5,51c-3.7,0-6.7-2.9-6.7-6.5s3-6.5,6.7-6.5c3.7,0,6.7,2.9,6.7,6.5S36.2,51,32.5,51z M32.5,40
					c-2.6,0-4.7,2-4.7,4.5s2.1,4.5,4.7,4.5c2.6,0,4.7-2,4.7-4.5S35.1,40,32.5,40z"/>
			</g>
			<g>
				<path fill="#2C2C3D" d="M49,49c-2.5,0-4.6-2-4.6-4.5S46.5,40,49,40s4.6,2,4.6,4.5S51.6,49,49,49z M49,42c-1.4,0-2.6,1.1-2.6,2.5
					S47.6,47,49,47s2.6-1.1,2.6-2.5S50.5,42,49,42z"/>
			</g>
			<g>
				<path fill="#2C2C3D" d="M48.5,31c-3.3,0-6.3-2.3-7-5.5c-0.1-0.5-0.2-1-0.2-1.5c0-3.9,3.2-7,7.2-7c3.6,0,6.6,2.5,7.1,5.9
					c0.1,0.3,0.1,0.7,0.1,1.1C55.7,27.9,52.5,31,48.5,31z M48.5,19c-2.9,0-5.2,2.2-5.2,5c0,0.4,0,0.7,0.1,1.1
					c0.5,2.3,2.7,3.9,5.1,3.9c2.9,0,5.2-2.2,5.2-5c0-0.3,0-0.5-0.1-0.7C53.3,20.8,51.1,19,48.5,19z"/>
			</g>
			<g>
				<path fill="#2C2C3D" d="M15.5,44c-2.3,0-4.1-1.8-4.1-4s1.8-4,4.1-4s4.1,1.8,4.1,4S17.7,44,15.5,44z M15.5,38
					c-1.2,0-2.1,0.9-2.1,2s0.9,2,2.1,2s2.1-0.9,2.1-2S16.6,38,15.5,38z"/>
			</g>
		</g>
	</g>
</g>
</svg>
