<?xml version="1.0" encoding="UTF-8" standalone="no"?> <svg xmlns="http://www.w3.org/2000/svg" viewBox="0 0 32 32"><defs><style>.cls-1{fill:#a96555;}.cls-2{fill:#8e5449;}.cls-3{fill:#683b32;}.cls-4{fill:#844c3e;}.cls-5{fill:#ff704c;}.cls-6{fill:#e55f45;}.cls-7{fill:#fe6567;}.cls-8{fill:#c33846;}.cls-9{fill:#e25a61;}.cls-10{fill:#a83344;}</style></defs><title>chocolate 5</title><g id="chocolate_5" data-name="chocolate 5"><rect class="cls-1" x="3" y="16" width="26" height="14" rx="1"/><path class="cls-2" d="M3,23v6a1,1,0,0,0,1,1H28a1,1,0,0,0,1-1V23Z"/><path class="cls-3" d="M13,23a1,1,0,0,0,1,1h6v4H5V23H3v6a1,1,0,0,0,1,1H28a1,1,0,0,0,1-1V23Zm14,5H22V24h5Z"/><path class="cls-4" d="M5,18H20v4H14a1,1,0,0,0-1,1H29V17a1,1,0,0,0-1-1H4a1,1,0,0,0-1,1v6H5Zm17,0h5v4H22Z"/><path class="cls-5" d="M15.12,23l-3.5-7H4a1,1,0,0,0-1,1V29a1,1,0,0,0,1,1H18.62Z"/><path class="cls-6" d="M3,23v6a1,1,0,0,0,1,1H18.62l-3.5-7Z"/><path class="cls-7" d="M24.77,7.24A5.82,5.82,0,0,1,23,10.71L18.71,15a1,1,0,0,1-1.42,0l-3.18-3.19a11.07,11.07,0,0,1-2.63-3.53.78.78,0,0,1-.05-.14A3.73,3.73,0,0,1,13,3.76a4.36,4.36,0,0,1,5,.66,5.42,5.42,0,0,1,2.76-1.19,3.67,3.67,0,0,1,3,1A3.67,3.67,0,0,1,24.77,7.24Z"/><path class="cls-8" d="M15.54,11.71l-2.83,2.83a1,1,0,0,1-1.42,0L8.46,11.71a3,3,0,0,1-.18-4.43,2.92,2.92,0,0,1,2.08-.86A2.68,2.68,0,0,1,12,6.9a2.94,2.94,0,0,1,3.72.38A3,3,0,0,1,15.54,11.71Z"/><path class="cls-9" d="M24.77,7.24A5.82,5.82,0,0,1,23,10.71L18.71,15a1,1,0,0,1-.71.29V4.42a5.42,5.42,0,0,1,2.76-1.19,3.67,3.67,0,0,1,3,1A3.67,3.67,0,0,1,24.77,7.24Z"/><path class="cls-10" d="M15.54,11.71l-2.83,2.83a1,1,0,0,1-.71.29V6.9a2.94,2.94,0,0,1,3.72.38A3,3,0,0,1,15.54,11.71Z"/></g></svg>