<?xml version="1.0" encoding="iso-8859-1"?>
<!-- Generator: Adobe Illustrator 19.0.0, SVG Export Plug-In . SVG Version: 6.00 Build 0)  -->
<svg version="1.1" id="Capa_1" xmlns="http://www.w3.org/2000/svg" xmlns:xlink="http://www.w3.org/1999/xlink" x="0px" y="0px"
	 viewBox="0 0 511.999 511.999" style="enable-background:new 0 0 511.999 511.999;" xml:space="preserve">
<rect x="111.119" y="127.704" style="fill:#FDDE7E;" width="64.132" height="104.215"/>
<polygon style="fill:#FCD559;" points="111.121,203.622 111.121,231.922 175.253,231.922 175.253,149.333 "/>
<polygon style="fill:#FE6A89;" points="415.75,504.485 111.121,504.485 111.121,272.005 263.435,127.707 415.75,272.005 "/>
<polygon style="fill:#FE5578;" points="263.435,127.707 111.121,272.005 111.121,336.137 263.435,199.856 415.75,336.137 
	415.75,272.005 "/>
<polygon style="fill:#EFECF1;" points="263.435,91.417 29.918,305.038 64.973,340.093 263.435,162.288 459.43,337.884 
	494.51,302.804 "/>
<path style="fill:#FFCBD1;" d="M452.405,131.463c-28.6-31.778-54.022,0-41.31,25.421s41.31,34.955,41.31,34.955
	s28.599-9.534,41.31-34.955S481.004,99.685,452.405,131.463z"/>
<path style="fill:#FF97A4;" d="M339.011,20.786c-28.6-31.778-54.022,0-41.31,25.421s41.31,34.955,41.31,34.955
	s28.6-9.534,41.31-34.955C393.033,20.786,367.61-10.992,339.011,20.786z"/>
<path style="fill:#FFCBD1;" d="M59.594,52.852c-28.6-31.778-54.022,0-41.31,25.421s41.31,34.955,41.31,34.955
	s28.6-9.534,41.31-34.955S88.193,21.075,59.594,52.852z"/>
<path style="fill:#D2F8EE;" d="M263.435,320.104c-72.149-80.165-136.281,0-104.215,64.132s104.215,88.182,104.215,88.182
	s72.149-24.05,104.215-88.182S335.584,239.938,263.435,320.104z"/>
<path style="fill:#61E7C4;" d="M199.767,384.236c-18.671-37.341-4.727-80.113,24.421-93.513
	c-53.612-21.216-91.008,41.435-64.968,93.513c32.066,64.132,104.215,88.182,104.215,88.182s8.192-2.734,20.273-8.803
	C259.92,451.665,221.032,426.767,199.767,384.236z"/>
<path d="M268.508,85.871c-2.872-2.626-7.274-2.627-10.146,0l-75.593,69.153v-27.317c0-4.152-3.365-7.516-7.516-7.516h-64.132
	c-4.151,0-7.516,3.364-7.516,7.516v99.736l-78.761,72.05c-3.112,2.848-3.226,7.874-0.241,10.86l35.055,35.055
	c2.785,2.784,7.395,2.911,10.329,0.283l33.616-30.118v188.911c0,4.152,3.365,7.516,7.516,7.516h304.629
	c4.151,0,7.516-3.364,7.516-7.516V404.277c0-4.152-3.365-7.516-7.516-7.516s-7.516,3.364-7.516,7.516v92.691H118.635V302.106
	l144.799-129.728l144.799,129.729v67.099c0,4.152,3.365,7.516,7.516,7.516s7.516-3.364,7.516-7.516v-53.632l31.15,27.909
	c2.972,2.663,7.508,2.538,10.329-0.283l35.079-35.08c2.984-2.985,2.872-8.013-0.242-10.86L268.508,85.871z M150.74,184.324h-32.104
	v-17.035h48.6c0.169,0,0.335-0.014,0.501-0.025v0.526c0,0.315,0.025,0.623,0.063,0.927L150.74,184.324z M167.738,135.222v17.06
	c-0.166-0.011-0.332-0.025-0.501-0.025h-48.6v-17.035H167.738z M118.636,199.355h15.673l-15.673,14.338
	C118.636,213.692,118.636,199.355,118.636,199.355z M459.146,327.539L268.45,156.691c-2.854-2.558-7.176-2.558-10.03,0
	L65.257,329.749l-24.47-24.47l222.648-203.676L483.64,303.045L459.146,327.539z"/>
<path d="M450.028,198.969c1.533,0.512,3.22,0.512,4.753,0c1.289-0.43,31.714-10.838,45.656-38.724
	c8.086-16.171,3.952-35.971-9.409-45.078c-9.09-6.196-23.545-7.423-38.623,5.738c-15.079-13.161-29.533-11.931-38.623-5.738
	c-13.362,9.107-17.494,28.908-9.409,45.078C418.315,188.131,448.74,198.54,450.028,198.969z M422.247,127.589
	c1.917-1.307,4.041-1.948,6.319-1.948c5.476,0,11.831,3.715,18.253,10.85c2.941,3.268,8.231,3.268,11.172,0
	c9.093-10.103,18.05-13.349,24.572-8.902c6.241,4.253,9.709,15.379,4.431,25.935c-9.109,18.218-27.974,27.474-34.602,30.26
	c-6.639-2.767-25.411-11.935-34.574-30.26C412.538,142.967,416.006,131.841,422.247,127.589z"/>
<path d="M336.635,88.292c1.533,0.512,3.22,0.512,4.753,0c1.289-0.43,31.713-10.837,45.656-38.724
	c8.086-16.171,3.952-35.971-9.409-45.078c-9.091-6.196-23.544-7.423-38.623,5.738c-15.08-13.161-29.534-11.933-38.624-5.738
	c-13.362,9.107-17.495,28.908-9.409,45.078C304.922,77.455,335.347,87.863,336.635,88.292z M308.853,16.912
	c1.916-1.307,4.041-1.948,6.319-1.948c5.476,0,11.831,3.715,18.253,10.85c2.941,3.268,8.231,3.268,11.172,0
	c9.093-10.103,18.049-13.35,24.572-8.902c6.241,4.253,9.708,15.379,4.43,25.935c-9.109,18.22-27.975,27.475-34.602,30.26
	c-6.639-2.767-25.411-11.934-34.575-30.26C299.144,32.29,302.612,21.165,308.853,16.912z"/>
<path d="M57.217,120.359c1.533,0.512,3.22,0.512,4.753,0c1.289-0.43,31.713-10.837,45.656-38.724
	c8.086-16.171,3.952-35.971-9.409-45.078c-9.09-6.197-23.545-7.423-38.623,5.738c-15.08-13.161-29.533-11.932-38.624-5.738
	C7.609,45.663,3.477,65.464,11.561,81.634C25.504,109.521,55.929,119.929,57.217,120.359z M29.436,48.978
	c1.917-1.307,4.041-1.948,6.319-1.948c5.476,0,11.831,3.715,18.253,10.85c2.941,3.268,8.231,3.268,11.172,0
	c9.093-10.103,18.051-13.35,24.572-8.902c6.241,4.253,9.709,15.379,4.431,25.935c-9.103,18.206-27.948,27.461-34.588,30.254
	c-6.657-2.801-25.491-12.056-34.589-30.254C19.727,64.356,23.195,53.231,29.436,48.978z"/>
<path d="M309.75,280.628c-15.66,3.691-31.213,13.275-46.315,28.526c-15.101-15.25-30.654-24.835-46.315-28.526
	c-16.138-3.804-31.586-1.096-44.675,7.825c-29.075,19.815-37.836,63.365-19.946,99.145c33.078,66.157,105.494,90.928,108.56,91.951
	c1.533,0.512,3.22,0.512,4.753,0c3.067-1.023,75.483-25.794,108.56-91.951c17.89-35.78,9.128-79.33-19.946-99.145
	C341.336,279.531,325.889,276.828,309.75,280.628z M367.099,334.408c3.321,15.364,1.128,31.867-6.172,46.467
	c-27.044,54.088-85.048,78.765-97.493,83.538c-12.456-4.779-70.451-29.455-97.493-83.538c-7.3-14.6-9.493-31.103-6.172-46.467
	c3.081-14.255,10.786-26.479,21.14-33.534c6.725-4.583,14.175-6.828,22.069-6.828c17.208,0,36.504,10.68,54.87,31.086
	c2.941,3.268,8.231,3.268,11.172,0c26.789-29.767,55.553-38.835,76.939-24.258C356.314,307.93,364.019,320.153,367.099,334.408z"/>
<g>
</g>
<g>
</g>
<g>
</g>
<g>
</g>
<g>
</g>
<g>
</g>
<g>
</g>
<g>
</g>
<g>
</g>
<g>
</g>
<g>
</g>
<g>
</g>
<g>
</g>
<g>
</g>
<g>
</g>
</svg>
