<?xml version="1.0" encoding="iso-8859-1"?>
<!-- Generator: Adobe Illustrator 19.0.0, SVG Export Plug-In . SVG Version: 6.00 Build 0)  -->
<svg version="1.1" id="Capa_1" xmlns="http://www.w3.org/2000/svg" xmlns:xlink="http://www.w3.org/1999/xlink" x="0px" y="0px"
	 viewBox="0 0 512.419 512.419" style="enable-background:new 0 0 512.419 512.419;" xml:space="preserve">
<ellipse style="fill:#66C6B9;" cx="256.209" cy="199.885" rx="256" ry="92.8"/>
<path style="fill:#46B29D;" d="M512.209,199.885v73.6c0,51.2-115.2,92.8-256,92.8c-141.867,0-256-41.6-256-92.8v-73.6
	c0,51.2,114.133,92.8,256,92.8C397.009,292.685,512.209,251.085,512.209,199.885z"/>
<path style="fill:#E8EAE9;" d="M512.209,272.418v73.6c0,51.2-115.2,92.8-256,92.8c-141.867,0-256-41.6-256-92.8v-73.6
	c0,51.2,114.133,92.8,256,92.8C397.009,365.218,512.209,323.618,512.209,272.418z"/>
<g>
	<path style="fill:#46B29D;" d="M512.209,346.018v73.6c0,51.2-115.2,92.8-256,92.8c-141.867,0-256-41.6-256-92.8v-73.6
		c0,51.2,114.133,92.8,256,92.8C397.009,438.818,512.209,397.218,512.209,346.018z"/>
	<path style="fill:#46B29D;" d="M415.143,178.552c-11.733-4.267-29.867-4.267-45.867-1.067c-2.133,0-5.333,1.067-8.533,1.067
		c-3.2,0-6.4,0-9.6-1.067c-14.933-3.2-33.067-3.2-45.867,1.067c-14.933,5.333-27.733,10.667-27.733,19.2c0,16,39.467,32,83.2,32
		s77.867-14.933,77.867-30.933C438.609,190.285,430.076,182.818,415.143,178.552z"/>
</g>
<path style="fill:#415A6B;" d="M356.476,98.552L356.476,98.552c-3.2,0-4.267-2.133-4.267-4.267c0-1.067,4.267-68.267,76.8-93.867
	c2.133-1.067,5.333,0,5.333,2.133c1.067,2.133,0,4.267-2.133,5.333c-66.133,23.467-70.4,86.4-71.467,86.4
	C360.743,97.485,358.609,98.552,356.476,98.552z"/>
<path style="fill:#F3705A;" d="M411.943,87.885c-11.733-10.667-29.867-10.667-45.867-4.267c-3.2,1.067-5.333,2.133-8.533,2.133
	c-3.2,0-6.4-1.067-9.6-2.133c-14.933-7.467-33.067-7.467-45.867,3.2c-14.933,12.8-24.533,32-24.533,52.267
	c0,39.467,35.2,71.467,78.933,71.467c43.733,0,78.933-32,78.933-71.467C435.409,118.818,425.809,100.685,411.943,87.885z"/>
<path style="fill:#F05540;" d="M407.676,193.485c-13.867,10.667-32,17.067-51.2,17.067c-43.733,0-78.933-32-78.933-71.467
	c0-16,5.333-30.933,14.933-42.667c-2.133,6.4-3.2,13.867-3.2,21.333c0,44.8,39.467,80,87.467,80
	C388.476,197.752,398.076,196.685,407.676,193.485z"/>
<path style="fill:#FFFFFF;" d="M416.209,119.885c4.267,10.667,3.2,21.333-3.2,23.467c-6.4,2.133-16-4.267-20.267-14.933
	s-3.2-21.333,3.2-23.467C402.343,102.818,410.876,109.218,416.209,119.885z"/>
<path style="fill:#46B29D;" d="M185.809,199.885c-9.6-3.2-24.533-3.2-36.267-1.067c-2.133,0-4.267,0-7.467,0
	c-3.2,0-5.333,0-7.467-1.067c-11.733-2.133-26.667-2.133-36.267,1.067c-11.733,4.267-22.4,8.533-22.4,14.933
	c0,11.733,32,23.467,66.133,23.467c35.2,0,61.867-10.667,61.867-22.4C205.009,208.418,197.543,204.152,185.809,199.885z"/>
<path style="fill:#415A6B;" d="M138.876,132.685L138.876,132.685c-2.133,0-3.2-2.133-3.2-3.2s4.267-55.467,61.867-74.667
	c2.133-1.067,4.267,0,4.267,2.133c1.067,2.133,0,3.2-2.133,4.267c-53.333,18.133-56.533,69.333-56.533,69.333
	C142.076,131.618,141.009,132.685,138.876,132.685z"/>
<path style="fill:#F3705A;" d="M182.609,124.152c-9.6-8.533-24.533-8.533-36.267-3.2c-2.133,1.067-4.267,1.067-7.467,1.067
	s-5.333-1.067-7.467-1.067c-11.733-5.333-26.667-5.333-36.267,3.2c-11.733,10.667-19.2,25.6-19.2,41.6c0,32,27.733,57.6,62.933,57.6
	c35.2,0,62.933-25.6,62.933-57.6C201.809,148.685,194.343,134.818,182.609,124.152z"/>
<path style="fill:#F05540;" d="M179.409,208.418c-10.667,8.533-25.6,13.867-41.6,13.867c-35.2,0-62.933-25.6-62.933-57.6
	c0-12.8,4.267-24.533,12.8-34.133c-2.133,5.333-3.2,10.667-3.2,17.067c0,35.2,30.933,64,70.4,64
	C164.476,212.685,171.943,211.618,179.409,208.418z"/>
<path style="fill:#FFFFFF;" d="M186.876,150.818c3.2,8.533,2.133,17.067-3.2,19.2c-5.333,2.133-12.8-3.2-16-11.733
	c-3.2-8.533-2.133-17.067,3.2-19.2C175.143,136.952,182.609,142.285,186.876,150.818z"/>
<g>
</g>
<g>
</g>
<g>
</g>
<g>
</g>
<g>
</g>
<g>
</g>
<g>
</g>
<g>
</g>
<g>
</g>
<g>
</g>
<g>
</g>
<g>
</g>
<g>
</g>
<g>
</g>
<g>
</g>
</svg>
