<?xml version="1.0" encoding="iso-8859-1"?>
<!-- Generator: Adobe Illustrator 19.0.0, SVG Export Plug-In . SVG Version: 6.00 Build 0)  -->
<svg version="1.1" id="Capa_1" xmlns="http://www.w3.org/2000/svg" xmlns:xlink="http://www.w3.org/1999/xlink" x="0px" y="0px"
	 viewBox="0 0 512 512" style="enable-background:new 0 0 512 512;" xml:space="preserve">
<rect x="39.577" y="207.906" style="fill:#FF97A4;" width="432.845" height="296.579"/>
<polygon style="fill:#FF7D8D;" points="472.423,207.906 71.64,207.906 39.577,207.906 39.577,231.953 39.577,504.485 71.64,504.485 
	71.64,231.953 472.423,231.953 "/>
<g>
	<circle style="fill:#FE5578;" cx="280.047" cy="223.937" r="16.031"/>
	<circle style="fill:#FE5578;" cx="376.235" cy="223.937" r="16.031"/>
	<path style="fill:#FE5578;" d="M472.423,207.906c-8.853,0-16.031,7.178-16.031,16.031s7.178,16.031,16.031,16.031
		c0.339,0,0.668-0.03,1.002-0.051v-31.961C473.091,207.936,472.761,207.906,472.423,207.906z"/>
	<circle style="fill:#FE5578;" cx="183.859" cy="223.937" r="16.031"/>
	<circle style="fill:#FE5578;" cx="87.671" cy="223.937" r="16.031"/>
	<circle style="fill:#FE5578;" cx="280.047" cy="384.25" r="16.031"/>
	<circle style="fill:#FE5578;" cx="376.235" cy="384.25" r="16.031"/>
	<path style="fill:#FE5578;" d="M472.423,368.219c-8.853,0-16.031,7.178-16.031,16.031s7.178,16.031,16.031,16.031
		c0.339,0,0.668-0.03,1.002-0.051v-31.961C473.091,368.249,472.761,368.219,472.423,368.219z"/>
	<circle style="fill:#FE5578;" cx="183.859" cy="384.25" r="16.031"/>
	<circle style="fill:#FE5578;" cx="87.671" cy="384.25" r="16.031"/>
	<circle style="fill:#FE5578;" cx="231.953" cy="464.407" r="16.031"/>
	<circle style="fill:#FE5578;" cx="328.141" cy="464.407" r="16.031"/>
	<circle style="fill:#FE5578;" cx="424.329" cy="464.407" r="16.031"/>
	<circle style="fill:#FE5578;" cx="135.765" cy="464.407" r="16.031"/>
	<path style="fill:#FE5578;" d="M39.577,448.376v32.063c8.853,0,16.031-7.178,16.031-16.031S48.431,448.376,39.577,448.376z"/>
	<circle style="fill:#FE5578;" cx="231.953" cy="303.092" r="16.031"/>
	<circle style="fill:#FE5578;" cx="424.329" cy="303.092" r="16.031"/>
	<circle style="fill:#FE5578;" cx="135.765" cy="303.092" r="16.031"/>
	<path style="fill:#FE5578;" d="M39.577,287.061v32.063c8.853,0,16.031-7.178,16.031-16.031
		C55.609,294.239,48.431,287.061,39.577,287.061z"/>
	<rect x="15.53" y="119.734" style="fill:#FE5578;" width="480.939" height="88.172"/>
</g>
<rect x="15.53" y="119.734" style="fill:#FE3F67;" width="32.063" height="88.172"/>
<path style="fill:#EFECF1;" d="M352.188,264.016l-80.157,56.11v144.282h160.313V320.125L352.188,264.016z M352.188,336.157
	c-8.853,0-16.031-7.178-16.031-16.031s7.178-16.031,16.031-16.031s16.031,7.178,16.031,16.031S361.041,336.157,352.188,336.157z"/>
<polygon style="fill:#E0DAE3;" points="296.078,328.141 369.937,276.44 352.188,264.016 272.031,320.125 272.031,464.407 
	296.078,464.407 "/>
<path style="fill:#FE5578;" d="M352.188,373.53c-28.597-31.774-54.016,0-41.306,25.419c12.71,25.419,41.306,34.951,41.306,34.951
	s28.597-9.533,41.306-34.951C406.203,373.53,380.785,341.755,352.188,373.53z"/>
<path d="M496.47,112.219H317.143c30.388-7.011,62.822-15.493,72.936-21.765c10.804-6.699,18.354-17.204,21.259-29.58
	c2.903-12.376,0.814-25.143-5.885-35.947C398.755,14.123,388.25,6.574,375.874,3.67c-12.376-2.905-25.142-0.814-35.947,5.884
	c-12.59,7.805-43.628,45.054-65.854,72.829c6.582-19.917,13.488-42.741,13.488-50.822C287.562,14.159,273.403,0,256,0
	s-31.562,14.159-31.562,31.562c0,8.081,6.906,30.905,13.488,50.821c-22.225-27.774-53.264-65.024-65.854-72.829
	c-10.804-6.698-23.572-8.788-35.947-5.884c-12.377,2.904-22.882,10.453-29.579,21.258c-6.699,10.805-8.788,23.571-5.885,35.947
	c2.904,12.376,10.454,22.881,21.259,29.58c10.115,6.27,42.548,14.754,72.936,21.765H15.53c-4.151,0-7.515,3.365-7.515,7.515v88.172
	c0,4.15,3.364,7.515,7.515,7.515h16.532v40.579c0,4.15,3.364,7.515,7.515,7.515s7.515-3.365,7.515-7.515v-40.578h297.581v44.682
	l-76.951,53.865c-2.009,1.406-3.205,3.704-3.205,6.156v144.282c0,4.15,3.364,7.515,7.515,7.515h160.313
	c4.151,0,7.515-3.365,7.515-7.515V320.124c0-2.452-1.196-4.75-3.205-6.156l-76.951-53.865v-44.682h105.205v281.55H47.092V293.072
	c0-4.15-3.364-7.515-7.515-7.515s-7.515,3.365-7.515,7.515v211.413c0,4.15,3.364,7.515,7.515,7.515h432.845
	c4.151,0,7.515-3.365,7.515-7.515V215.421h16.532c4.151,0,7.515-3.365,7.515-7.515v-88.172
	C503.984,115.584,500.621,112.219,496.47,112.219z M352.188,311.609c4.696,0,8.517,3.82,8.517,8.517c0,4.696-3.82,8.517-8.517,8.517
	c-4.696,0-8.517-3.82-8.517-8.517C343.671,315.429,347.492,311.609,352.188,311.609z M424.83,324.038v132.854H279.546V324.038
	l65.127-45.589v19.368c-9.308,3.144-16.031,11.953-16.031,22.31c0,12.983,10.563,23.546,23.546,23.546s23.546-10.563,23.546-23.546
	c0-10.356-6.723-19.165-16.031-22.31v-19.368L424.83,324.038z M347.846,22.328c11.791-7.31,27.414-6.232,38.054,2.682
	c6.563,5.498,10.805,13.578,11.555,22.109c0.682,7.764-1.503,15.711-6.082,22.02c-2.478,3.414-5.629,6.319-9.213,8.542
	c-11.138,6.905-64.862,19.584-107.8,28.516C301.458,71.712,336.708,29.233,347.846,22.328z M256,15.029
	c9.116,0,16.532,7.416,16.532,16.532c0,6.667-8.467,33.684-16.532,57.379c-8.066-23.693-16.532-50.71-16.532-57.379
	C239.468,22.446,246.884,15.029,256,15.029z M115.293,57.442c-1.986-8.468-0.557-17.203,4.027-24.596
	c6.971-11.243,20.458-17.271,33.5-14.898c4.012,0.73,7.868,2.231,11.333,4.38c11.139,6.905,46.39,49.385,73.486,83.87
	c-42.937-8.931-96.66-21.609-107.8-28.516C122.446,73.098,117.281,65.911,115.293,57.442z M23.045,200.391v-73.143h321.628v73.143
	H23.045z M488.955,200.391H359.703v-73.143h129.252V200.391z"/>
<path d="M313.569,357.237c-13.361,9.106-17.493,28.904-9.409,45.073c13.942,27.882,44.363,38.29,45.651,38.72
	c0.772,0.257,1.574,0.386,2.377,0.386s1.605-0.128,2.377-0.386c1.288-0.43,31.708-10.837,45.651-38.72
	c8.084-16.169,3.952-35.967-9.409-45.073c-9.088-6.195-23.542-7.424-38.618,5.737C337.11,349.812,322.658,351.042,313.569,357.237z
	 M382.343,369.656c6.24,4.253,9.708,15.377,4.431,25.932c-9.102,18.203-27.945,27.458-34.585,30.251
	c-6.656-2.801-25.488-12.055-34.587-30.25c-5.278-10.556-1.81-21.679,4.431-25.933c1.916-1.306,4.041-1.948,6.319-1.948
	c5.476,0,11.829,3.714,18.25,10.848c1.426,1.584,3.456,2.488,5.586,2.488s4.16-0.904,5.586-2.488
	C366.865,368.454,375.82,365.211,382.343,369.656z"/>
<g>
</g>
<g>
</g>
<g>
</g>
<g>
</g>
<g>
</g>
<g>
</g>
<g>
</g>
<g>
</g>
<g>
</g>
<g>
</g>
<g>
</g>
<g>
</g>
<g>
</g>
<g>
</g>
<g>
</g>
</svg>
