<?xml version="1.0" encoding="iso-8859-1"?>
<!-- Generator: Adobe Illustrator 19.0.0, SVG Export Plug-In . SVG Version: 6.00 Build 0)  -->
<svg version="1.1" id="Capa_1" xmlns="http://www.w3.org/2000/svg" xmlns:xlink="http://www.w3.org/1999/xlink" x="0px" y="0px"
	 viewBox="0 0 512 512" style="enable-background:new 0 0 512 512;" xml:space="preserve">
<g>
	<path style="fill:#F05540;" d="M169.6,35.2c19.2,24.533,17.067,61.867-5.333,83.2c-24.533,22.4-59.733,17.067-78.933-10.667
		C68.267,80,74.667,43.733,98.133,25.6C120.533,7.467,151.467,11.733,169.6,35.2z"/>
	<path style="fill:#F05540;" d="M342.4,35.2c-19.2,23.467-18.133,60.8,5.333,82.133c24.533,22.4,59.733,17.067,78.933-10.667
		C443.733,80,437.333,43.733,414.933,25.6C391.467,7.467,360.533,11.733,342.4,35.2z"/>
	<path style="fill:#F05540;" d="M355.2,446.933c30.933-28.8,50.133-70.4,50.133-116.267c0-86.4-67.2-155.733-149.333-155.733
		c-83.2,0-149.333,69.333-149.333,155.733c0,46.933,19.2,88.533,50.133,116.267C183.467,478.933,320,478.933,355.2,446.933z"/>
	<path style="fill:#F05540;" d="M386.133,330.667C364.8,280.533,312.533,227.2,321.067,211.2C331.733,192,422.4,232.533,454.4,300.8
		c32,66.133,10.667,99.2-8.533,99.2C423.467,402.133,409.6,379.733,386.133,330.667z"/>
	<path style="fill:#F05540;" d="M125.867,330.667c21.333-50.133,73.6-103.467,65.067-119.467C180.267,192,89.6,232.533,57.6,300.8
		c-32,66.133-10.667,99.2,8.533,99.2C88.533,402.133,102.4,379.733,125.867,330.667z"/>
</g>
<path style="fill:#F3F3F3;" d="M342.4,302.933c0,76.8-38.4,115.2-86.4,115.2s-86.4-37.333-86.4-115.2S208,138.667,256,138.667
	S342.4,226.133,342.4,302.933z"/>
<ellipse style="fill:#F3705A;" cx="256" cy="125.867" rx="134.4" ry="125.867"/>
<ellipse style="fill:#F3F3F3;" cx="252.8" cy="187.733" rx="54.4" ry="46.933"/>
<g>
	<path style="fill:#415A6B;" d="M290.133,201.6c-6.4,11.733-21.333,20.267-36.267,20.267c-16,0-29.867-7.467-36.267-20.267
		c-1.067-1.067,0-3.2,1.067-3.2c1.067-1.067,3.2,0,3.2,1.067c5.333,9.6,17.067,17.067,29.867,17.067V172.8
		c0-1.067,1.067-2.133,2.133-2.133c1.067,0,2.133,1.067,2.133,2.133v43.733c12.8-1.067,24.533-7.467,29.867-17.067
		c1.067-1.067,2.133-2.133,3.2-1.067C290.133,198.4,290.133,199.467,290.133,201.6z"/>
	<ellipse style="fill:#415A6B;" cx="252.8" cy="155.733" rx="26.667" ry="23.467"/>
	<circle style="fill:#415A6B;" cx="298.667" cy="133.333" r="14.933"/>
</g>
<circle style="fill:#344A5E;" cx="298.667" cy="133.333" r="7.467"/>
<circle style="fill:#FFFFFF;" cx="304" cy="129.067" r="2.133"/>
<circle style="fill:#415A6B;" cx="206.933" cy="133.333" r="14.933"/>
<circle style="fill:#344A5E;" cx="206.933" cy="133.333" r="7.467"/>
<circle style="fill:#FFFFFF;" cx="201.6" cy="129.067" r="2.133"/>
<ellipse style="fill:#F3705A;" cx="167.467" cy="440.533" rx="70.4" ry="71.467"/>
<g>
	<path style="fill:#415A6B;" d="M199.467,459.733c2.133,13.867-10.667,25.6-28.8,26.667c-17.067,1.067-33.067-8.533-35.2-22.4
		c-2.133-13.867,10.667-25.6,28.8-26.667S197.333,445.867,199.467,459.733z"/>
	
		<ellipse transform="matrix(0.0644 -0.9979 0.9979 0.0644 -250.9635 549.3542)" style="fill:#415A6B;" cx="167.484" cy="408.514" rx="14.933" ry="10.666"/>
	
		<ellipse transform="matrix(-0.1921 -0.9814 0.9814 -0.1921 -251.7578 626.8494)" style="fill:#415A6B;" cx="132.144" cy="417.053" rx="14.934" ry="10.667"/>
	
		<ellipse transform="matrix(-0.1921 0.9814 -0.9814 -0.1921 652.7144 299.0856)" style="fill:#415A6B;" cx="203.248" cy="418.212" rx="14.934" ry="10.667"/>
</g>
<ellipse style="fill:#F3705A;" cx="348.8" cy="440.533" rx="70.4" ry="71.467"/>
<g>
	<path style="fill:#415A6B;" d="M380.8,459.733c2.133,13.867-10.667,25.6-28.8,26.667c-17.067,1.067-33.067-8.533-35.2-22.4
		c-2.133-13.867,10.667-25.6,28.8-26.667C362.667,436.267,378.667,445.867,380.8,459.733z"/>
	
		<ellipse transform="matrix(0.0644 -0.9979 0.9979 0.0644 -81.3136 730.3275)" style="fill:#415A6B;" cx="348.821" cy="408.528" rx="14.933" ry="10.666"/>
	
		<ellipse transform="matrix(-0.1921 -0.9814 0.9814 -0.1921 -36.3127 806.2264)" style="fill:#415A6B;" cx="313.701" cy="418.06" rx="14.934" ry="10.667"/>
	
		<ellipse transform="matrix(-0.1921 0.9814 -0.9814 -0.1921 867.7355 119.8569)" style="fill:#415A6B;" cx="384.532" cy="417.104" rx="14.934" ry="10.667"/>
</g>
<g>
</g>
<g>
</g>
<g>
</g>
<g>
</g>
<g>
</g>
<g>
</g>
<g>
</g>
<g>
</g>
<g>
</g>
<g>
</g>
<g>
</g>
<g>
</g>
<g>
</g>
<g>
</g>
<g>
</g>
</svg>
