<?xml version="1.0" encoding="UTF-8" standalone="no"?> <svg id="Layer_1" data-name="Layer 1" xmlns="http://www.w3.org/2000/svg" viewBox="0 0 128 128"><defs><style>.cls-1{fill:#2e79bd;}.cls-2{fill:#2d3e50;}</style></defs><title>x</title><path class="cls-1" d="M13.76087,32.5542H114.23913a1.68114,1.68114,0,0,0,1.67994-1.67994,10.94727,10.94727,0,0,0-10.94862-10.94862H88.29969V15.44972A11.98007,11.98007,0,0,0,76.33312,3.48315H51.667A11.98016,11.98016,0,0,0,39.70038,15.44972v4.47592H23.02955A10.94727,10.94727,0,0,0,12.08093,30.87426a1.68114,1.68114,0,0,0,1.67994,1.67994Zm40.829-21.54026H73.41019a7.3587,7.3587,0,0,1,7.3587,7.3587v1.553H47.23118v-1.553A7.3587,7.3587,0,0,1,54.58988,11.01395Z"/><path class="cls-2" d="M114.23913,39.67951H13.76087a1.68114,1.68114,0,0,0-1.67994,1.67994v6.37221c0,.92687,17.40773,65.83656,17.40773,65.83656A11.94992,11.94992,0,0,0,41.3931,124.51685H86.6069a11.94992,11.94992,0,0,0,11.90445-10.94862s17.40773-64.90969,17.40773-65.83656V41.35945A1.68114,1.68114,0,0,0,114.23913,39.67951Z"/></svg>