<?xml version="1.0" encoding="iso-8859-1"?>
<!-- Generator: Adobe Illustrator 19.0.0, SVG Export Plug-In . SVG Version: 6.00 Build 0)  -->
<svg version="1.1" id="Capa_1" xmlns="http://www.w3.org/2000/svg" xmlns:xlink="http://www.w3.org/1999/xlink" x="0px" y="0px"
	 viewBox="0 0 512.267 512.267" style="enable-background:new 0 0 512.267 512.267;" xml:space="preserve">
<g>
	<path style="fill:#66C6B9;" d="M384.133,306.133c55.467-55.467,128-87.467,128-155.733c0-37.333-29.867-68.267-67.2-68.267
		c-26.667,0-50.133,16-60.8,38.4c-10.667-22.4-34.133-38.4-60.8-38.4c-37.333,0-67.2,30.933-67.2,68.267
		C256.133,219.733,331.867,251.733,384.133,306.133z"/>
	<path style="fill:#66C6B9;" d="M408.667,315.733c-13.867,13.867-34.133,13.867-48,0C366,309.333,375.6,304,375.6,295.467
		c5.333,0,11.733,0,17.067,0C392.667,304,403.333,308.267,408.667,315.733z"/>
</g>
<path style="fill:#FFFFFF;" d="M479.067,122.667c7.467,8.533,10.667,19.2,6.4,22.4c-4.267,3.2-13.867,0-21.333-9.6
	c-7.467-8.533-10.667-19.2-6.4-22.4C460.933,109.867,470.533,114.133,479.067,122.667z"/>
<g>
	<path style="fill:#415A6B;" d="M394.8,301.867h-20.267c-2.133,0-3.2-1.067-3.2-3.2c0-2.133,1.067-3.2,3.2-3.2H394.8
		c2.133,0,3.2,1.067,3.2,3.2C398,299.733,396.933,301.867,394.8,301.867z"/>
	<path style="fill:#415A6B;" d="M364.933,324.267c-1.067,0-3.2-1.067-3.2-2.133c0-2.133,1.067-3.2,2.133-4.267
		c3.2-1.067,5.333-2.133,5.333-7.467c1.067-7.467,8.533-12.8,9.6-13.867c1.067-1.067,3.2-1.067,4.267,1.067
		c1.067,1.067,1.067,3.2-1.067,4.267c-2.133,1.067-6.4,5.333-6.4,9.6C375.6,318.933,372.4,322.133,364.933,324.267L364.933,324.267z
		"/>
	<path style="fill:#415A6B;" d="M401.2,369.067c-18.133-30.933-10.667-70.4-10.667-70.4V297.6h-6.4
		c-1.067,3.2-7.467,41.6,11.733,74.667c17.067,30.933-8.533,86.4-8.533,87.467c-1.067,2.133,0,3.2,1.067,4.267h1.067
		c1.067,0,2.133-1.067,3.2-2.133C393.733,459.733,420.4,403.2,401.2,369.067z"/>
</g>
<g>
	<path style="fill:#F3705A;" d="M134.533,234.667c58.667-58.667,134.4-91.733,134.4-163.2c0-39.467-32-71.467-70.4-71.467
		C170.8,0,146.267,16,135.6,40.533C122.8,16,98.267,0,70.533,0c-38.4,0-70.4,32-70.4,71.467
		C0.133,144,80.133,177.067,134.533,234.667z"/>
	<path style="fill:#F3705A;" d="M159.067,244.267c-14.933,13.867-35.2,13.867-50.133,0c5.333-7.467,16-11.733,16-21.333
		c6.4,0,11.733,0,18.133,0C143.067,231.467,153.733,236.8,159.067,244.267z"/>
</g>
<path style="fill:#FFFFFF;" d="M233.733,41.6c8.533,9.6,10.667,20.267,6.4,23.467c-4.267,4.267-14.933,0-22.4-9.6
	c-8.533-9.6-10.667-20.267-6.4-23.467C215.6,27.733,225.2,32,233.733,41.6z"/>
<g>
	<path style="fill:#415A6B;" d="M145.2,229.333h-21.333c-2.133,0-3.2-1.067-3.2-3.2c0-2.133,1.067-3.2,3.2-3.2H145.2
		c2.133,0,3.2,1.067,3.2,3.2C149.467,227.2,147.333,229.333,145.2,229.333z"/>
	<path style="fill:#415A6B;" d="M114.267,252.8c-1.067,0-3.2-1.067-3.2-2.133c0-2.133,1.067-3.2,2.133-4.267
		c3.2-1.067,5.333-2.133,6.4-7.467c1.067-7.467,8.533-13.867,9.6-14.933c1.067-1.067,3.2-1.067,4.267,1.067
		c1.067,1.067,1.067,3.2-1.067,4.267c-2.133,1.067-6.4,5.333-7.467,9.6C124.933,247.467,121.733,250.667,114.267,252.8
		L114.267,252.8z"/>
	<path style="fill:#415A6B;" d="M151.6,299.733c-18.133-33.067-11.733-73.6-10.667-73.6v-1.067h-6.4
		c-1.067,3.2-7.467,43.733,11.733,77.867c18.133,32-8.533,90.667-9.6,91.733c-1.067,2.133,0,4.267,2.133,4.267h1.067
		c1.067,0,2.133-1.067,3.2-2.133S171.867,334.933,151.6,299.733z"/>
</g>
<g>
	<path style="fill:#FFD15C;" d="M256.133,395.733c53.333-52.267,121.6-83.2,121.6-147.2c0-35.2-28.8-64-64-64
		c-25.6,0-46.933,14.933-57.6,36.267c-10.667-21.333-32-36.267-57.6-36.267c-35.2,0-64,28.8-64,64
		C134.533,313.6,207.067,343.467,256.133,395.733z"/>
	<path style="fill:#FFD15C;" d="M278.533,403.2c-12.8,12.8-32,12.8-44.8,0c5.333-6.4,14.933-10.667,14.933-19.2
		c5.333,0,10.667,0,16,0C264.667,392.533,274.267,396.8,278.533,403.2z"/>
</g>
<path style="fill:#FFFFFF;" d="M345.733,220.8c7.467,8.533,9.6,18.133,6.4,21.333c-3.2,3.2-12.8,0-20.267-8.533
	c-7.467-8.533-9.6-18.133-6.4-21.333C328.667,209.067,338.267,212.267,345.733,220.8z"/>
<g>
	<path style="fill:#415A6B;" d="M266.8,390.4h-19.2c-2.133,0-3.2-1.067-3.2-3.2c0-2.133,1.067-3.2,3.2-3.2h19.2
		c2.133,0,3.2,1.067,3.2,3.2C268.933,389.333,267.867,390.4,266.8,390.4z"/>
	<path style="fill:#415A6B;" d="M238,411.733c-1.067,0-3.2-1.067-3.2-2.133c0-2.133,1.067-3.2,2.133-4.267
		c3.2-1.067,5.333-2.133,5.333-6.4c1.067-7.467,8.533-12.8,8.533-12.8c1.067-1.067,3.2-1.067,4.267,1.067
		c1.067,1.067,1.067,3.2-1.067,4.267c-2.133,1.067-6.4,5.333-6.4,8.533C247.6,406.4,244.4,410.667,238,411.733L238,411.733z"/>
	<path style="fill:#415A6B;" d="M268.933,509.867c0,3.2,6.4,3.2,6.4,0c4.267-18.133,6.4-39.467-3.2-55.467
		c-17.067-29.867-9.6-66.133-9.6-66.133V387.2h-6.4c-1.067,3.2-6.4,39.467,10.667,70.4C275.333,472.533,273.2,492.8,268.933,509.867
		z"/>
</g>
<g>
</g>
<g>
</g>
<g>
</g>
<g>
</g>
<g>
</g>
<g>
</g>
<g>
</g>
<g>
</g>
<g>
</g>
<g>
</g>
<g>
</g>
<g>
</g>
<g>
</g>
<g>
</g>
<g>
</g>
</svg>
