<?xml version="1.0" encoding="UTF-8" standalone="no"?> <svg xmlns="http://www.w3.org/2000/svg" viewBox="0 0 76.44 74.36"><defs><style>.cls-1{isolation:isolate;}.cls-2{fill:#ffb77b;}.cls-3{fill:#371438;}.cls-4{fill:#dd8136;opacity:0.5;mix-blend-mode:multiply;}.cls-5{fill:#e54545;}.cls-6{fill:#fff;}.cls-7{fill:#ff6161;}.cls-8{fill:#f6f870;}.cls-9{fill:#f772db;}.cls-10{fill:#a7f772;}</style></defs><title>Asset 17</title><g class="cls-1"><g id="Layer_2" data-name="Layer 2"><g id="Layer_1-2" data-name="Layer 1"><path class="cls-2" d="M20.42,17.78a.42.42,0,0,0-.62.06L1.55,42.27c-2,2.08,3.27,10.6,11.87,19S30.65,74.87,32.69,72.78L56.83,54.13a.41.41,0,0,0,0-.62Z"/><path class="cls-3" d="M31.35,74.36c-4.82,0-13.91-7.56-18.71-12.26A69.78,69.78,0,0,1,2.55,50C-.07,45.8-.67,42.94.75,41.48l9.3-11.54a1.12,1.12,0,1,1,1.74,1.4L2.42,43c-.31.32-.43,1.9,2,5.84A67.8,67.8,0,0,0,14.2,60.5C23.76,69.87,30.9,73,31.89,72l.12-.1L55.5,53.74,20.24,19.17l-3,4.27a1.12,1.12,0,1,1-1.83-1.28l3.44-4.95A1.52,1.52,0,0,1,21.2,17L57.65,52.71a1.54,1.54,0,0,1,.46,1.2A1.52,1.52,0,0,1,57.48,55l-24,18.6A2.91,2.91,0,0,1,31.35,74.36Zm24.74-20Zm0-1.07s0,0,0,0Z"/><path class="cls-3" d="M13,28.76a1.08,1.08,0,0,1-.64-.2A1.12,1.12,0,0,1,12.08,27l1.67-2.4a1.12,1.12,0,0,1,1.84,1.27l-1.67,2.41A1.13,1.13,0,0,1,13,28.76Z"/><path class="cls-4" d="M56.87,53.51,55,51.65c-13.08,8.19-37.44,8.89-52.92-4.86C3.81,50.54,8,55.94,13.42,61.3,22,69.73,30.65,74.87,32.69,72.78L56.83,54.13A.41.41,0,0,0,56.87,53.51Z"/><path class="cls-5" d="M37.79,43.48c9,8,17.27,12.57,19.42,10.37,2.44-2.49-3.9-12.65-14.15-22.7S22.51,15,20.07,17.45c-2.15,2.2,2.55,10.39,10.76,19.21C30.83,36.66,35.4,42,37.79,43.48Z"/><path class="cls-3" d="M55.65,55.5c-4.42,0-12.28-5.55-18.54-11.13-2.52-1.66-6.94-6.76-7.13-7C23,29.92,16,20,19.27,16.67c3.82-3.89,16.78,6,24.57,13.68a82.91,82.91,0,0,1,12,14.39C58.9,49.65,59.63,53,58,54.63A3.15,3.15,0,0,1,55.65,55.5ZM21.7,18a1.16,1.16,0,0,0-.83.25c-1,1,1.23,7.41,10.78,17.67,1.27,1.46,4.9,5.45,6.75,6.64l.14.11C49,52,55.43,54.07,56.42,53.06c.42-.42.44-2.47-2.47-7.13a80.9,80.9,0,0,0-11.68-14C32.1,22,24.35,18,21.7,18Z"/><path class="cls-6" d="M16.52,30.66a1.13,1.13,0,0,1-.92-1.76l2.29-3.31a1.12,1.12,0,0,1,1.84,1.26l-2.29,3.32A1.1,1.1,0,0,1,16.52,30.66Z"/><path class="cls-6" d="M5.51,44.72a1.11,1.11,0,0,1-.87-1.82l8.61-10.58A1.12,1.12,0,1,1,15,33.73L6.38,44.31A1.13,1.13,0,0,1,5.51,44.72Z"/><path class="cls-7" d="M63.29,50.79c2.55-2.56,1.82-8.54-.62-11.75-.39-1.2-.1-.33-.1-.33,5.45,1.23,7.3-4.83,7.3-4.83,2.36-3.35-3.71-11.64-3.71-11.64-4.71-10.4,7.92-15.35,7.92-15.35C56.5-5.25,48.33,5.4,48.33,5.4a9.66,9.66,0,0,0-7.06-3.09,8.45,8.45,0,0,0-7.55,8.29c-3.22-2.23-7.47-1.09-7.47-1.09-5.57,1.61-5.65,8.27-5.65,8.27s-.45,7.73,13.25,22.49c0,0,9.77,9.77,16.44,11.84,3.47,2,7.16,2.32,9.38.49A6.52,6.52,0,0,0,63.29,50.79Z"/><path class="cls-8" d="M45.72,23.68a2,2,0,1,1,0-2.82A2,2,0,0,1,45.72,23.68Z"/><path class="cls-9" d="M63.23,26.22a2,2,0,1,1,0-2.83A2,2,0,0,1,63.23,26.22Z"/><path class="cls-10" d="M56.33,39.83a2,2,0,1,1,0-2.83A2,2,0,0,1,56.33,39.83Z"/><circle class="cls-10" cx="54.21" cy="9.07" r="2"/><circle class="cls-9" cx="40.77" cy="10.13" r="2"/><path class="cls-8" d="M32.64,24.27a2,2,0,1,1,0-2.82A2,2,0,0,1,32.64,24.27Z"/><path class="cls-3" d="M62.57,39.82a1.12,1.12,0,0,1-.78-.31A48.81,48.81,0,0,1,47.21,5.36a1.14,1.14,0,0,1,1.16-1.08,1.13,1.13,0,0,1,1.08,1.16c0,.18-.41,18.63,13.9,32.46a1.12,1.12,0,0,1,0,1.58A1.1,1.1,0,0,1,62.57,39.82Z"/><path class="cls-3" d="M59.67,53.72a1.12,1.12,0,0,1-.75-.29C31.05,28.1,32.53,11.19,32.61,10.48a1.12,1.12,0,0,1,2.22.24c0,.2-1.27,16.64,25.59,41.05a1.12,1.12,0,0,1,.08,1.58A1.1,1.1,0,0,1,59.67,53.72Z"/><path class="cls-3" d="M55.93,54.93a12.38,12.38,0,0,1-6.09-1.79C43,50.93,33.46,41.47,33.06,41.06c-13.9-15-13.6-23-13.58-23.34s.16-7.46,6.46-9.28a11.84,11.84,0,0,1,6.88.4c.51-2.44,2.27-6.64,8.27-7.64h.15A11,11,0,0,1,48.33,3.8C51,1.36,59.72-4.38,74.72,6l1.72,1.19-2,.77c-.06,0-5.85,2.35-7.7,6.92a8.54,8.54,0,0,0,.34,6.83c.92,1.26,6.17,8.86,3.76,12.69-.68,2.06-2.73,5.29-6.33,5.6,1.9,3.71,2.16,9-.48,11.61a7.61,7.61,0,0,1-3.94,2.07A7,7,0,0,1,55.93,54.93ZM28.83,10.34a10.62,10.62,0,0,0-2.3.25c-4.69,1.36-4.82,7.15-4.82,7.2s-.12,7.63,13,21.72c.07.07,9.62,9.56,15.95,11.53l.24.1c3.13,1.84,6.3,2.08,8.1.6l.23-.19.3,0a5.41,5.41,0,0,0,3-1.5c2.14-2.14,1.38-7.53-.71-10.29l-.12-.15-.06-.18c0-.13-.09-.27-.12-.41l-.06-.17h0c-.13-.58-.11-1.19.68-1.45a1,1,0,0,1,1.2.37c4,.53,5.43-4,5.49-4.16l.16-.32c1.3-1.85-1.38-7.15-3.7-10.33l-.12-.2a10.68,10.68,0,0,1-.41-8.7c1.5-3.7,4.94-6.08,7.1-7.26C56.43-3,49.29,6,49.22,6.08l-.85,1.1-.89-1.06a8.54,8.54,0,0,0-6.11-2.7c-6.57,1.15-6.54,6.91-6.53,7.16l0,2.18-1.8-1.24A7.48,7.48,0,0,0,28.83,10.34Z"/><path class="cls-3" d="M65.67,22.48a1.13,1.13,0,0,1-.93-.5C56.06,9.05,61.92,2,62.17,1.71a1.12,1.12,0,1,1,1.7,1.46c-.22.26-4.93,6.15,2.73,17.56a1.12,1.12,0,0,1-.3,1.56A1.22,1.22,0,0,1,65.67,22.48Z"/><path class="cls-6" d="M63.05,22.56a1.11,1.11,0,0,1-.93-.49,30.06,30.06,0,0,1-4.37-9.41,1.12,1.12,0,0,1,2.17-.53A28,28,0,0,0,64,20.83a1.13,1.13,0,0,1-.31,1.55A1.17,1.17,0,0,1,63.05,22.56Z"/><path class="cls-6" d="M58.35,9.36h0a1.12,1.12,0,0,1-1.08-1.15A9.07,9.07,0,0,1,58,4.49a1.12,1.12,0,0,1,2,1,7.49,7.49,0,0,0-.51,2.76A1.12,1.12,0,0,1,58.35,9.36Z"/><path class="cls-6" d="M55.86,36.59a1.12,1.12,0,0,1-.87-.42,51.54,51.54,0,0,1-9.56-18.34,1.12,1.12,0,0,1,2.16-.59,49.3,49.3,0,0,0,9.15,17.54,1.12,1.12,0,0,1-.18,1.57A1.16,1.16,0,0,1,55.86,36.59Z"/><path class="cls-6" d="M45.37,13.06a1.11,1.11,0,0,1-1.11-1A26.3,26.3,0,0,1,44,7a1.11,1.11,0,0,1,1.21-1,1.13,1.13,0,0,1,1,1.21,24.82,24.82,0,0,0,.23,4.64,1.12,1.12,0,0,1-1,1.25Z"/></g></g></g></svg>