<?xml version="1.0" encoding="iso-8859-1"?>
<!-- Generator: Adobe Illustrator 19.0.0, SVG Export Plug-In . SVG Version: 6.00 Build 0)  -->
<svg version="1.1" id="Capa_1" xmlns="http://www.w3.org/2000/svg" xmlns:xlink="http://www.w3.org/1999/xlink" x="0px" y="0px"
	 viewBox="0 0 512 512" style="enable-background:new 0 0 512 512;" xml:space="preserve">
<path style="fill:#415A6B;" d="M471.467,353.067H40.533V62.933c0-16,12.8-28.8,28.8-28.8H441.6c16,0,28.8,12.8,28.8,28.8v290.133
	H471.467z"/>
<polygon style="fill:#344A5E;" points="0,436.267 40.533,353.067 471.467,353.067 512,436.267 "/>
<g>
	<polygon style="fill:#415A6B;" points="205.867,412.8 222.933,376.533 289.067,376.533 306.133,412.8 	"/>
	<path style="fill:#415A6B;" d="M0,436.267c0,23.467,19.2,41.6,41.6,41.6h427.733c23.467,0,41.6-19.2,41.6-41.6H0z"/>
</g>
<rect x="80" y="72.533" style="fill:#F3F3F3;" width="353.067" height="242.133"/>
<path style="fill:#F3705A;" d="M256,285.867c0,0,112-55.467,112-129.067c0-32-25.6-57.6-57.6-57.6c-25.6,0-46.933,16-54.4,38.4
	c-7.467-22.4-29.867-38.4-54.4-38.4c-32,0-57.6,25.6-57.6,57.6C144,232.533,256,285.867,256,285.867z"/>
<path style="fill:#FFFFFF;" d="M337.067,129.067c7.467,7.467,11.733,16,7.467,20.267c-3.2,4.267-12.8,1.067-20.267-5.333
	c-7.467-7.467-11.733-16-7.467-20.267S328.533,121.6,337.067,129.067z"/>
<g>
</g>
<g>
</g>
<g>
</g>
<g>
</g>
<g>
</g>
<g>
</g>
<g>
</g>
<g>
</g>
<g>
</g>
<g>
</g>
<g>
</g>
<g>
</g>
<g>
</g>
<g>
</g>
<g>
</g>
</svg>
