<?xml version="1.0" encoding="iso-8859-1"?>
<!-- Generator: Adobe Illustrator 19.0.0, SVG Export Plug-In . SVG Version: 6.00 Build 0)  -->
<svg version="1.1" id="Capa_1" xmlns="http://www.w3.org/2000/svg" xmlns:xlink="http://www.w3.org/1999/xlink" x="0px" y="0px"
	 viewBox="0 0 512 512" style="enable-background:new 0 0 512 512;" xml:space="preserve">
<path style="fill:#F3705A;" d="M512,137.067v301.867c0,18.133-13.867,32-32,32H32c-18.133,0-32-13.867-32-32V137.067
	c0-17.067,13.867-32,32-32h448C498.133,105.067,512,118.933,512,137.067z"/>
<path style="fill:#344A5E;" d="M512,216v-78.933c0-17.067-13.867-32-32-32H32c-18.133,0-32,14.933-32,32V216H512z"/>
<circle style="fill:#415A6B;" cx="289.067" cy="287.467" r="145.067"/>
<circle style="fill:#CED6E0;" cx="289.067" cy="287.467" r="106.667"/>
<circle style="fill:#55C0EB;" cx="289.067" cy="287.467" r="62.933"/>
<circle style="fill:#FFFFFF;" cx="332.8" cy="260.8" r="26.667"/>
<path style="fill:#FFD15C;" d="M118.4,181.867H49.067c-5.333,0-9.6-4.267-9.6-9.6v-19.2c0-5.333,4.267-9.6,9.6-9.6H118.4
	c5.333,0,9.6,4.267,9.6,9.6v19.2C128,177.6,123.733,181.867,118.4,181.867z"/>
<path style="fill:#415A6B;" d="M106.667,75.2h-38.4c-5.333,0-9.6,4.267-9.6,9.6V104h57.6V85.867
	C116.267,79.467,112,75.2,106.667,75.2z"/>
<path style="fill:#344A5E;" d="M347.733,41.067H230.4c-10.667,0-19.2,6.4-22.4,16l-16,48h196.267l-16-48
	C368,47.467,358.4,41.067,347.733,41.067z"/>
<g>
</g>
<g>
</g>
<g>
</g>
<g>
</g>
<g>
</g>
<g>
</g>
<g>
</g>
<g>
</g>
<g>
</g>
<g>
</g>
<g>
</g>
<g>
</g>
<g>
</g>
<g>
</g>
<g>
</g>
</svg>
