<?xml version="1.0" encoding="utf-8"?>
<!-- Generator: Adobe Illustrator 18.0.0, SVG Export Plug-In . SVG Version: 6.00 Build 0)  -->
<!DOCTYPE svg PUBLIC "-//W3C//DTD SVG 1.1//EN" "http://www.w3.org/Graphics/SVG/1.1/DTD/svg11.dtd">
<svg version="1.1" id="Layer_1" xmlns="http://www.w3.org/2000/svg" xmlns:xlink="http://www.w3.org/1999/xlink" x="0px" y="0px"
	 viewBox="0 0 64 64" enable-background="new 0 0 64 64" xml:space="preserve">
<g>
	<g id="XMLID_12_">
		<g>
			<g>
				<path fill="#6DE283" d="M41.6,4.6C45.8,8.3,46,14.9,46,14.9s-6.6,0.7-10.8-3c-3.5-3.1-4.2-8.2-4.3-9.8c0-0.2,0-0.4,0.1-0.5
					C31.7,1.5,37.7,1.2,41.6,4.6z"/>
			</g>
			<g>
				<circle fill="#F96262" cx="17.2" cy="49.8" r="13.2"/>
			</g>
			<g>
				<circle fill="#F96262" cx="47.8" cy="44.2" r="13.2"/>
			</g>
		</g>
		<g>
			<g>
				<path fill="#2C2C3D" d="M40,2H20c-0.6,0-1-0.4-1-1s0.4-1,1-1h20c0.6,0,1,0.4,1,1S40.6,2,40,2z"/>
			</g>
			<g>
				<path fill="#2C2C3D" d="M17.2,64C9.4,64,3,57.6,3,49.8s6.4-14.2,14.2-14.2c7.8,0,14.2,6.4,14.2,14.2S25.1,64,17.2,64z
					 M17.2,37.6C10.5,37.6,5,43,5,49.8C5,56.5,10.5,62,17.2,62s12.2-5.5,12.2-12.2C29.4,43,24,37.6,17.2,37.6z"/>
			</g>
			<g>
				<path fill="#2C2C3D" d="M47.8,58.4c-7.8,0-14.2-6.4-14.2-14.2S39.9,30,47.8,30C55.6,30,62,36.3,62,44.2S55.6,58.4,47.8,58.4z
					 M47.8,32c-6.7,0-12.2,5.5-12.2,12.2c0,6.7,5.5,12.2,12.2,12.2S60,50.9,60,44.2C60,37.4,54.5,32,47.8,32z"/>
			</g>
			<g>
				<path fill="#2C2C3D" d="M17.9,37C17.9,37,17.9,37,17.9,37c-0.6,0-1-0.5-1-1C17.5,12.1,29.8,0.7,30.3,0.3
					c0.3-0.3,0.8-0.3,1.2-0.1c0.4,0.2,0.6,0.6,0.5,1.1c0,0,0,0.2-0.1,0.5c0,0.1,0,0.3-0.1,0.5c-0.5,4.1-1.2,18.3,10.8,29.1
					c0.4,0.4,0.4,1,0.1,1.4c-0.4,0.4-1,0.4-1.4,0.1C30.1,22.7,29.4,9.8,29.7,4C26.2,8.3,19.4,18.9,18.9,36
					C18.9,36.6,18.5,37,17.9,37z"/>
			</g>
			<g>
				<path fill="#2C2C3D" d="M17.3,59.4c-0.6,0-1-0.4-1-1s0.4-1,1-1c2.3,0,4.5-1,6-2.8c0.4-0.4,1-0.5,1.4-0.1c0.4,0.4,0.5,1,0.1,1.4
					C22.9,58.2,20.2,59.4,17.3,59.4z"/>
			</g>
			<g>
				<path fill="#2C2C3D" d="M48.3,54.2c-0.6,0-1-0.4-1-1s0.4-1,1-1c2.3,0,4.5-1,6-2.8c0.4-0.4,1-0.5,1.4-0.1c0.4,0.4,0.5,1,0.1,1.4
					C53.9,52.9,51.2,54.2,48.3,54.2z"/>
			</g>
			<g>
				<path fill="#2C2C3D" d="M44.8,16c-2.4,0-7-0.4-10.3-3.3C30.7,9.3,30,3.8,29.9,2.2c0-0.3,0-0.5,0-0.5c0-0.3,0.1-0.5,0.3-0.7
					c0.2-0.2,0.5-0.3,0.7-0.3c0.2,0,0.6,0,1.2,0c2.4,0,7,0.4,10.3,3.3C46.7,7.8,47,14.6,47,14.9c0,0.5-0.4,1-0.9,1
					C46.1,15.9,45.6,16,44.8,16z M31.9,2.5c0.2,1.9,1,6.1,4,8.6c2.9,2.6,7.2,2.8,8.9,2.8c0,0,0.1,0,0.1,0c-0.2-1.9-1.1-6.1-4-8.6
					C38.1,2.9,34,2.5,31.9,2.5z"/>
			</g>
		</g>
	</g>
</g>
</svg>
